<svg width="60" height="30" viewBox="0 0 60 30" fill="none" xmlns="http://www.w3.org/2000/svg">
<g clip-path="url(#clip0_506_2)">
<path fill-rule="evenodd" clip-rule="evenodd" d="M13.5975 0.0378026C12.3039 0.15624 10.6627 0.503457 9.64328 0.874398C5.15808 2.50654 1.6701 6.44605 0.411536 11.3011C-0.0471513 13.0705 -0.137909 16.1544 0.217781 17.8914C1.74768 25.3661 8.1821 30.4597 15.4721 29.9671C20.5446 29.6244 24.9952 27.2768 28.9285 22.8694L30.043 21.6204L30.927 22.6828C36.0592 28.8496 43.7234 31.439 50.1736 29.1853C53.5682 27.9995 56.6314 25.2985 58.2843 22.0339C59.5368 19.5599 59.9708 17.672 59.9509 14.7845C59.9224 10.7028 58.3564 7.00548 55.4685 4.20327C54.0977 2.87296 53.6893 2.55851 52.3863 1.83019C48.8096 -0.169133 44.1576 -0.525953 40.053 0.884002C37.0711 1.90814 33.4632 4.40079 31.0788 7.08343L29.902 8.40753L29.2392 7.59484C27.7081 5.71754 25.4115 3.73215 23.3049 2.46474C20.603 0.838999 16.3797 -0.216773 13.5975 0.0378026ZM16.7043 7.29188C18.8596 7.75621 21.0263 9.07277 23.0418 11.1433C24.3682 12.5058 25.8367 14.4866 25.8367 14.9137C25.8367 15.6448 23.3762 18.7847 21.7367 20.1455C19.629 21.8951 16.7486 23.0595 14.5116 23.0667C12.5957 23.0729 10.1268 21.8836 8.84905 20.3392C6.20651 17.1456 6.33681 12.4958 9.15616 9.37687C10.5944 7.78559 13.042 6.79497 15.0097 7.00774C15.4239 7.05255 16.1865 7.18041 16.7043 7.29188ZM47.9887 7.47358C50.574 8.42428 52.5121 10.9307 52.9269 13.8602C53.1048 15.1174 53.0811 15.495 52.7209 17.1382C51.9496 20.6563 48.4014 23.3109 44.8667 23.0147C41.2287 22.7097 37.6204 20.3456 34.9236 16.5003C33.807 14.908 33.7673 15.1762 35.4601 12.881C36.8937 10.9373 38.1657 9.72164 39.7878 8.74533C42.6891 6.99927 45.5092 6.56186 47.9887 7.47358Z" fill="url(#paint0_linear_506_2)"/>
<path d="M23.8195 18.0254L25.8907 14.9695L30.0332 21.654L27.6795 24.196L23.8195 18.0254Z" fill="#9D49A3"/>
<path d="M29.7906 8.32813L32.2926 5.83716L36.0587 12.1451L34.0815 15.0637L29.7906 8.32813Z" fill="#AA40A0"/>
</g>
<defs>
<linearGradient id="paint0_linear_506_2" x1="-6.93884e-07" y1="4.04835" x2="59.8779" y2="26.4555" gradientUnits="userSpaceOnUse">
<stop offset="0.00614442" stop-color="#6A95FE"/>
<stop offset="1" stop-color="#FF0066"/>
</linearGradient>
<clipPath id="clip0_506_2">
<rect width="60" height="30" fill="white"/>
</clipPath>
</defs>
</svg>
